# xmcd CD database file
#
# Track frame offsets:
#	150
#	18819
#	41250
#	63542
#	84580
#	106036
#	133065
#	155496
#	184196
#	204816
#	230033
#
# Disc length: 3412 seconds
#
# Revision: 0
# Processed by: cddbd v1.5.2PL0 Copyright (c) Steve Scherf et al.
# Submitted via: jetAudio 7
#
DISCID=850d520b
DTITLE=음악가 없음 - 앨범 없음
DYEAR=1900
DGENRE=장르 없음
TTITLE0=漁家姑娘在海邊
TTITLE1=絨花
TTITLE2=萬泉河水清又清
TTITLE3=蝴蝶之戀
TTITLE4=茉莉花
TTITLE5=綠葉對根的情意
TTITLE6=同一首歌
TTITLE7=同一首歌
TTITLE8=鄕戀
TTITLE9=在銀色的月光下
TTITLE10=天堂
EXTD=
EXTT0=
EXTT1=
EXTT2=
EXTT3=
EXTT4=
EXTT5=
EXTT6=
EXTT7=
EXTT8=
EXTT9=
EXTT10=
PLAYORDER=
